<svg xmlns="http://www.w3.org/2000/svg" viewBox="0 0 1014.94 146.69"><title>Asset 2</title><g id="Layer_2" data-name="Layer 2"><g id="Layer_1-2" data-name="Layer 1"><path d="M0,144.35V8.19H89.73V31h-64V64H82.32V86.81H25.75v34.72h64v22.82Z" fill="#fff"/><path d="M115.48,144.35V42.53h25v17h1a32.57,32.57,0,0,1,9.86-13.76q6.72-5.55,18.62-5.56,15.81,0,24.19,10.34T202.48,80v64.37h-25V82.52q0-10.93-3.9-16.39t-12.87-5.46a26.32,26.32,0,0,0-7.51,1.07,21.29,21.29,0,0,0-6.44,3.12,16.33,16.33,0,0,0-4.58,5.07,13.85,13.85,0,0,0-1.76,7.12v67.3Z" fill="#fff"/><path d="M230.18,0h25V59.5h1A32.46,32.46,0,0,1,266,45.74q6.72-5.55,18.63-5.56,15.79,0,24.18,10.34T317.18,80v64.37h-25V82.52q0-10.93-3.9-16.39t-12.87-5.46a26.32,26.32,0,0,0-7.51,1.07,21.29,21.29,0,0,0-6.44,3.12,16.33,16.33,0,0,0-4.58,5.07,14,14,0,0,0-1.76,7.12v67.3h-25Z" fill="#fff"/><path d="M419.79,144.35q-8.19,0-13-4.78t-5.95-12.77H399.7q-2.54,9.95-10.34,14.92t-19.31,5q-15.62,0-24-8.16t-8.38-21.78q0-15.75,11.31-23.43t32.19-7.68h17.36V78.22q0-8.58-4.49-13.26t-14.43-4.68q-8.79,0-14.15,3.8a37.56,37.56,0,0,0-9.07,9.07L341.57,59.81a43,43,0,0,1,15-14.23q9.36-5.38,24.77-5.4,20.67,0,31.41,9.35T423.5,76.38v47.88h10.14v20.09Zm-41.36-15.8a26.17,26.17,0,0,0,14.24-3.68A12,12,0,0,0,398.53,114V100.66h-16q-19.5,0-19.51,12.4v3.29q0,6.2,4,9.2T378.43,128.55Z" fill="#fff"/><path d="M453.93,144.35V42.53h25v17h1a32.55,32.55,0,0,1,9.85-13.76q6.73-5.55,18.63-5.56,15.79,0,24.19,10.34T540.93,80v64.37H516V82.52q0-10.93-3.9-16.39t-12.88-5.46a26.42,26.42,0,0,0-7.51,1.07,21.41,21.41,0,0,0-6.44,3.12,16.46,16.46,0,0,0-4.58,5.07,14,14,0,0,0-1.76,7.12v67.3Z" fill="#fff"/><path d="M608.81,146.69a51.27,51.27,0,0,1-20.09-3.7A38.8,38.8,0,0,1,574,132.26a48.26,48.26,0,0,1-9.07-16.88,73.1,73.1,0,0,1-3.12-22.14,72.25,72.25,0,0,1,3.12-22A47.41,47.41,0,0,1,574,54.52a39.32,39.32,0,0,1,14.73-10.63,51.27,51.27,0,0,1,20.09-3.71q15.41,0,25.46,6.83A38.38,38.38,0,0,1,648.8,65.93L628.32,75.1a21.22,21.22,0,0,0-6.54-10.63q-4.77-4.19-13-4.19-10.53,0-15.7,6.63t-5.17,17.36V102.8q0,10.74,5.17,17.27t15.7,6.53q9,0,13.85-4.58a31.45,31.45,0,0,0,7.61-11.41l19.12,9.16Q644.31,133.24,634,140T608.81,146.69Z" fill="#fff"/><path d="M708.88,146.69a50.76,50.76,0,0,1-20.19-3.8,41.81,41.81,0,0,1-15-10.73,47.86,47.86,0,0,1-9.46-16.78,69.11,69.11,0,0,1-3.32-22.14,69.61,69.61,0,0,1,3.22-21.84,47.74,47.74,0,0,1,9.27-16.68A40.94,40.94,0,0,1,688.2,44a49.57,49.57,0,0,1,19.9-3.81q11.89,0,20.68,4.1A39.82,39.82,0,0,1,743.21,55.4a48.08,48.08,0,0,1,8.49,16.29,67.69,67.69,0,0,1,2.83,19.8v8.19H686.84v2.52q0,11,6.24,17.72t18.53,6.68q9.36,0,15.32-3.87a43.64,43.64,0,0,0,10.63-9.88L751,127.92A41.94,41.94,0,0,1,734,141.71Q723.12,146.69,708.88,146.69Zm-.39-87.78q-9.94,0-15.8,6.63t-5.85,17.17v1.56h41.74V82.52q0-10.55-5.17-17.07T708.49,58.91Z" fill="#fff"/><path d="M848.55,8.19V91.88q0,16,6.15,24t20.77,8q14.63,0,20.78-8t6.14-24V8.19h25.36V88.56a104.73,104.73,0,0,1-2.83,26,44.24,44.24,0,0,1-9.07,18.14,36.51,36.51,0,0,1-16.29,10.63q-10,3.41-24.28,3.41-14.44,0-24.29-3.41a36.58,36.58,0,0,1-16.09-10.63,43.17,43.17,0,0,1-9-18.14,108.07,108.07,0,0,1-2.73-25.95V8.19Z" fill="#fff"/><path d="M953.11,144.35V123.67h17.94V28.87H953.11V8.19h61.83V28.87H996.8v94.8h18.14v20.68Z" fill="#fff"/></g></g></svg>